<svg width="400" height="240" viewBox="0 0 400 240" fill="none" xmlns="http://www.w3.org/2000/svg">
<rect width="400" height="240" fill="white"/>
<path d="M99.2262 97.1924H50V108.644H68.047V143.862H81.1792V108.644H99.2262V97.1924Z" fill="black"/>
<path d="M197.951 129.499C196.727 130.916 195.134 131.97 193.191 132.678C191.229 133.387 188.976 133.731 186.411 133.731C183.459 133.731 180.914 133.195 178.777 132.142C176.64 131.089 174.989 129.576 173.862 127.603C172.735 125.631 172.153 123.275 172.153 120.537C172.153 117.798 172.716 115.443 173.862 113.47C174.989 111.498 176.64 109.985 178.777 108.931C180.914 107.878 183.478 107.342 186.411 107.342C188.976 107.342 191.249 107.706 193.191 108.453C195.134 109.2 196.727 110.272 197.951 111.651C199.174 113.049 199.99 114.734 200.418 116.726H213.55C213.084 112.627 211.666 109.027 209.257 105.925C206.867 102.842 203.72 100.448 199.816 98.7433C195.93 97.0389 191.443 96.1963 186.411 96.1963C180.894 96.1963 176.077 97.2113 171.958 99.2412C167.84 101.271 164.635 104.125 162.342 107.763C160.05 111.421 158.904 115.672 158.904 120.518C158.904 125.363 160.05 129.614 162.342 133.272C164.635 136.93 167.84 139.764 171.958 141.794C176.077 143.824 180.894 144.839 186.411 144.839C191.462 144.839 195.93 143.996 199.816 142.292C203.701 140.587 206.848 138.193 209.257 135.11C211.646 132.027 213.084 128.427 213.55 124.309H200.418C199.99 126.339 199.174 128.063 197.951 129.48V129.499Z" fill="black"/>
<path d="M270.527 107.782C268.177 104.124 264.894 101.29 260.678 99.2598C256.463 97.2298 251.548 96.2148 245.914 96.2148C240.281 96.2148 235.404 97.2298 231.17 99.2598C226.935 101.29 223.652 104.143 221.32 107.782C218.989 111.44 217.824 115.691 217.824 120.536C217.824 125.381 218.989 129.633 221.32 133.29C223.652 136.948 226.935 139.782 231.17 141.812C235.404 143.842 240.319 144.857 245.914 144.857C251.509 144.857 256.482 143.842 260.678 141.812C264.894 139.782 268.177 136.948 270.527 133.29C272.878 129.633 274.063 125.381 274.063 120.536C274.063 115.691 272.878 111.44 270.527 107.782ZM259.007 127.373C257.803 129.288 256.093 130.762 253.859 131.797C251.625 132.831 248.983 133.348 245.914 133.348C242.845 133.348 240.261 132.831 238.027 131.797C235.793 130.762 234.064 129.288 232.86 127.373C231.636 125.458 231.034 123.179 231.034 120.536C231.034 117.893 231.636 115.595 232.86 113.699C234.084 111.784 235.812 110.31 238.027 109.276C240.261 108.241 242.884 107.724 245.914 107.724C248.945 107.724 251.645 108.241 253.859 109.276C256.093 110.31 257.803 111.784 259.007 113.699C260.212 115.614 260.814 117.893 260.814 120.536C260.814 123.179 260.212 125.477 259.007 127.373Z" fill="black"/>
<path d="M329.797 97.1924L315.46 131.28L301.007 97.1924H280.823V143.862H293.256V108.683L308.778 143.862H322.026L337.567 108.453V143.862H350V97.1924H329.797Z" fill="black"/>
<path d="M153.814 120.537C153.814 122.146 153.465 123.716 152.843 125.152C152.843 125.152 152.843 125.172 152.843 125.191L147.811 123.008L106.511 105.14V91.5049L147.132 110.138C149.191 111.077 150.861 112.571 152.027 114.371C153.193 116.171 153.853 118.297 153.853 120.537H153.814Z" fill="#FF0054"/>
<path d="M152.823 125.172C152.61 125.651 152.357 126.13 152.066 126.57C150.9 128.428 149.191 129.96 147.093 130.936L106.472 149.57V135.762L136.738 122.548L141.653 120.404L106.472 105.141L147.772 123.008L152.804 125.191L152.823 125.172Z" fill="#B10036"/>
<path opacity="0.45" d="M152.843 125.133C152.843 125.133 152.843 125.152 152.843 125.171C152.629 125.65 152.377 126.129 152.085 126.569L136.758 122.529L141.673 120.384L147.811 122.988L152.862 125.133H152.843Z" fill="#191919"/>
</svg>
